<?xml version="1.0" standalone="no"?>
<!DOCTYPE svg PUBLIC "-//W3C//DTD SVG 20010904//EN"
 "http://www.w3.org/TR/2001/REC-SVG-20010904/DTD/svg10.dtd">
<svg version="1.0" xmlns="http://www.w3.org/2000/svg"
 width="180.000000pt" height="180.000000pt" viewBox="0 0 180.000000 180.000000"
 preserveAspectRatio="xMidYMid meet">
<metadata>
Created by potrace 1.14, written by Peter Selinger 2001-2017
</metadata>
<g transform="translate(0.000000,180.000000) scale(0.100000,-0.100000)"
fill="#000000" stroke="none">
<path d="M85 1777 c-22 -13 -49 -40 -62 -62 l-23 -40 0 -775 0 -775 23 -40
c13 -22 40 -49 62 -62 l40 -23 775 0 775 0 40 23 c22 13 49 40 62 62 l23 40 0
775 0 775 -23 40 c-13 22 -40 49 -62 62 l-40 23 -775 0 -775 0 -40 -23z m523
-604 c7 -43 17 -118 23 -168 16 -127 39 -278 43 -283 4 -3 28 128 46 253 13
95 27 186 35 238 l6 37 139 0 c77 0 140 -4 140 -8 0 -5 7 -51 15 -103 9 -52
19 -119 24 -149 31 -192 46 -268 52 -265 6 4 15 71 40 275 5 47 15 122 21 168
l11 82 129 0 130 0 -7 -32 c-11 -56 -61 -286 -85 -390 -9 -43 -28 -124 -50
-225 l-12 -53 -164 0 c-162 0 -164 0 -168 23 -9 45 -35 195 -51 292 -9 55 -21
104 -26 110 -6 6 -9 6 -9 0 -1 -21 -54 -351 -65 -402 -5 -23 -7 -23 -168 -23
l-163 0 -37 168 c-21 92 -42 185 -47 207 -20 88 -70 314 -70 319 0 3 58 6 129
6 l129 0 10 -77z"/>
</g>
</svg>
